<svg width="60" height="60" viewBox="0 0 60 60" fill="none" xmlns="http://www.w3.org/2000/svg">
<rect width="60" height="60" rx="4" fill="white"/>
<path d="M9.7984 25.2366V40.6986C9.7984 41.297 9.27728 41.771 8.68221 41.6971C4.35192 41.1491 0.999985 37.4475 0.999985 32.9659C0.999985 28.4843 4.35192 24.7861 8.68221 24.2381C9.27728 24.1641 9.7984 24.6382 9.7984 25.2366Z" fill="#003B55"/>
<path d="M12.4643 42.5936C11.7012 42.5936 11.0792 41.975 11.0792 41.2084V24.7211C11.0792 23.9579 11.6978 23.3359 12.4643 23.3359C13.2309 23.3359 13.8495 23.9545 13.8495 24.7211V41.2084C13.8495 41.975 13.2309 42.5936 12.4643 42.5936Z" fill="#003B55"/>
<path d="M52.301 23.6836C52.301 24.2652 52.2775 24.8367 52.2371 25.4049H50.0652C50.1157 24.8367 50.1392 24.2618 50.1392 23.6836C50.1392 21.8882 49.9072 20.1501 49.4735 18.4892H47.5505C45.3013 10.7095 38.1233 5.01426 29.6174 5.01426C21.1115 5.01426 13.9336 10.7062 11.681 18.4892H9.75796C9.32426 20.1467 9.09228 21.8882 9.09228 23.6836C9.09228 24.2652 9.11581 24.8401 9.16624 25.4049H6.99437C6.95403 24.8334 6.9305 24.2618 6.9305 23.6836C6.93386 11.1567 17.0905 1 29.6174 1C42.1443 1 52.301 11.1567 52.301 23.6836Z" fill="#003B55"/>
<path d="M49.4334 25.2339V40.6959C49.4334 41.2943 49.9546 41.7683 50.5496 41.6944C54.8799 41.1464 58.2319 37.4448 58.2319 32.9666C58.2319 28.4884 54.8799 24.7868 50.5496 24.2388C49.9579 24.1614 49.4334 24.6355 49.4334 25.2339Z" fill="#003B55"/>
<path d="M46.7675 42.5936C47.5307 42.5936 48.1527 41.975 48.1527 41.2084V24.7211C48.1527 23.9579 47.534 23.3359 46.7675 23.3359C46.0043 23.3359 45.3823 23.9545 45.3823 24.7211V41.2084C45.3823 41.975 46.0043 42.5936 46.7675 42.5936Z" fill="#003B55"/>
<path d="M33.7314 59V50.3005H34.3815V55.1865C34.3815 55.4321 34.3634 55.6812 34.3273 55.934C34.2912 56.1868 34.2478 56.4396 34.1973 56.6924H35.5948C35.6165 56.5696 35.6346 56.4468 35.649 56.324C35.6707 56.2013 35.6887 56.0785 35.7032 55.9557C36.0065 56.519 36.5302 56.8007 37.2741 56.8007C38.0108 56.8007 38.5669 56.5371 38.9425 56.0099C39.3253 55.4826 39.5167 54.8579 39.5167 54.1356C39.5167 53.37 39.3217 52.7742 38.9317 52.348C38.5416 51.9219 38.0397 51.7089 37.4258 51.7089C36.9852 51.7089 36.6313 51.81 36.364 52.0122C36.104 52.2144 35.909 52.4564 35.779 52.7381V49.2387H33.7314V46.7578H39.8417V59H33.7314ZM38.0649 54.2548C38.0649 54.7531 37.953 55.1215 37.7291 55.3598C37.5124 55.591 37.2452 55.7065 36.9274 55.7065C36.5591 55.7065 36.2738 55.5729 36.0715 55.3057C35.8765 55.0312 35.779 54.6954 35.779 54.2981V54.179C35.779 53.8178 35.8801 53.5 36.0824 53.2256C36.2918 52.9511 36.5843 52.8139 36.9599 52.8139C37.2921 52.8139 37.5594 52.9367 37.7616 53.1822C37.9638 53.4278 38.0649 53.7853 38.0649 54.2548Z" fill="#01ABF6"/>
<path d="M39.6244 59V46.7578H45.063V59H39.6244ZM44.7488 55.154L43.5788 54.9373C43.5499 55.0818 43.4668 55.2443 43.3296 55.4248C43.1996 55.6054 42.9468 55.6957 42.5712 55.6957C41.8851 55.6957 41.5023 55.3093 41.4228 54.5365H44.6296C44.6802 54.3053 44.7055 54.0706 44.7055 53.8323C44.6982 53.1967 44.4816 52.6839 44.0554 52.2939C43.6365 51.9039 43.0876 51.7089 42.4087 51.7089C41.6359 51.7089 41.0328 51.9616 40.5995 52.4672C40.1733 52.9656 39.9603 53.5903 39.9603 54.3415C39.9603 55.1576 40.195 55.7715 40.6645 56.1832C41.1412 56.5949 41.7442 56.8007 42.4737 56.8007C43.1743 56.8007 43.7196 56.6346 44.1096 56.3024C44.4996 55.9701 44.7127 55.5873 44.7488 55.154ZM43.2646 53.7239H41.4337C41.477 53.4206 41.5781 53.175 41.737 52.9872C41.8959 52.7995 42.1198 52.7056 42.4087 52.7056C42.7409 52.7056 42.9721 52.8139 43.1021 53.0306C43.2393 53.2472 43.2935 53.4784 43.2646 53.7239Z" fill="#01ABF6"/>
<path d="M44.808 59V46.7578H49.9974V59H44.808ZM49.6291 55.1973C49.6291 54.7279 49.4846 54.3956 49.1957 54.2006C48.9141 53.9984 48.5818 53.8648 48.199 53.7998C47.8234 53.7348 47.4912 53.6698 47.2023 53.6048C46.9206 53.5325 46.7798 53.3917 46.7798 53.1822C46.7798 53.0233 46.8412 52.9078 46.964 52.8356C47.094 52.7561 47.2493 52.7164 47.4298 52.7164C47.7043 52.7164 47.9607 52.7561 48.199 52.8356L48.2857 53.5181L49.3691 53.3989L49.2499 52.153C48.6793 51.8569 48.069 51.7089 47.419 51.7089C46.9206 51.7089 46.4367 51.8136 45.9673 52.023C45.505 52.2253 45.2739 52.6261 45.2739 53.2256C45.2739 53.7095 45.422 54.0526 45.7181 54.2548C46.0142 54.457 46.3573 54.5906 46.7473 54.6556C47.1373 54.7206 47.4804 54.7856 47.7765 54.8506C48.0726 54.9156 48.2207 55.0529 48.2207 55.2623C48.2207 55.4357 48.1232 55.5657 47.9282 55.6523C47.7332 55.739 47.502 55.7824 47.2348 55.7824C47.1626 55.7824 47.0543 55.7787 46.9098 55.7715C46.7654 55.7571 46.6281 55.7282 46.4981 55.6848V55.0782L45.4147 54.959L45.2197 56.324C45.5447 56.4902 45.8842 56.6129 46.2381 56.6924C46.5992 56.7646 46.9567 56.8007 47.3106 56.8007C47.9968 56.8007 48.5529 56.6707 48.9791 56.4107C49.4124 56.1435 49.6291 55.739 49.6291 55.1973Z" fill="#01ABF6"/>
<path d="M49.7599 59V46.7578H54.2885V59H49.7599ZM54.1801 55.1757L53.1617 54.8615C53.1184 55.2226 53.0281 55.4429 52.8909 55.5223C52.7609 55.5946 52.6526 55.6307 52.5659 55.6307C52.2048 55.6307 52.0242 55.4176 52.0242 54.9915V52.8031H53.7793V51.8064H52.0242V50.3221H50.6266V51.8064H49.9333V52.8031H50.6266V55.2298C50.6266 55.7354 50.7855 56.1254 51.1033 56.3999C51.4283 56.6671 51.8617 56.8007 52.4034 56.8007C53.4506 56.8007 54.0429 56.259 54.1801 55.1757Z" fill="#01ABF6"/>
<path d="M4.78516 46.7578H12.0871V55.4573H11.4154L8.88033 49.6504H6.4644V50.8855H7.43944L5.42436 55.4573H4.78516V46.7578ZM8.45782 51.7197L9.19451 53.7023H7.60195L8.39281 51.7197H8.45782ZM12.0871 59H4.78516V56.6924H7.55861V55.4573H6.89775L7.19026 54.7423H9.58453L9.84454 55.4573H9.28118V56.6924H12.0871V59Z" fill="#003B55"/>
<path d="M11.8737 59V46.7578H15.1671V59H11.8737ZM12.177 56.6924H14.8746V55.6415H14.2246V49.2387H12.1228V50.3005H12.827V55.6415H12.177V56.6924Z" fill="#003B55"/>
<path d="M14.9313 59V46.7578H18.2247V59H14.9313ZM15.2346 56.6924H17.9322V55.6415H17.2822V49.2387H15.1804V50.3005H15.8846V55.6415H15.2346V56.6924Z" fill="#003B55"/>
<path d="M17.9888 59V46.7578H22.5174V59H17.9888ZM22.409 55.1757L21.3906 54.8615C21.3473 55.2226 21.257 55.4429 21.1198 55.5223C20.9898 55.5946 20.8815 55.6307 20.7948 55.6307C20.4337 55.6307 20.2531 55.4176 20.2531 54.9915V52.8031H22.0082V51.8064H20.2531V50.3221H18.8555V51.8064H18.1622V52.8031H18.8555V55.2298C18.8555 55.7354 19.0144 56.1254 19.3322 56.3999C19.6572 56.6671 20.0906 56.8007 20.6323 56.8007C21.6795 56.8007 22.2718 56.259 22.409 55.1757Z" fill="#003B55"/>
<path d="M22.3054 59V46.7578H28.8057V59H22.3054ZM25.8697 56.6924H28.5673V55.6415H27.9173V53.3989C27.9173 52.8211 27.7476 52.395 27.4081 52.1205C27.0687 51.8461 26.6678 51.7089 26.2056 51.7089C25.4833 51.7089 24.9597 51.9905 24.6347 52.5539V49.2387H22.5871V50.3005H23.2371V55.6415H22.5871V56.6924H25.2847V55.6415H24.6347V53.8323C24.6491 53.5145 24.743 53.2581 24.9164 53.0631C25.0969 52.8681 25.3461 52.7706 25.6639 52.7706C25.9383 52.7706 26.1478 52.8608 26.2922 53.0414C26.4439 53.222 26.5198 53.5217 26.5198 53.9406V55.6415H25.8697V56.6924Z" fill="#003B55"/>
<path d="M28.6004 59V46.7578H34.039V59H28.6004ZM33.7248 55.154L32.5548 54.9373C32.5259 55.0818 32.4428 55.2443 32.3056 55.4248C32.1756 55.6054 31.9228 55.6957 31.5472 55.6957C30.8611 55.6957 30.4783 55.3093 30.3988 54.5365H33.6056C33.6562 54.3053 33.6815 54.0706 33.6815 53.8323C33.6743 53.1967 33.4576 52.6839 33.0315 52.2939C32.6125 51.9039 32.0636 51.7089 31.3847 51.7089C30.6119 51.7089 30.0088 51.9616 29.5755 52.4672C29.1493 52.9656 28.9363 53.5903 28.9363 54.3415C28.9363 55.1576 29.171 55.7715 29.6405 56.1832C30.1172 56.5949 30.7202 56.8007 31.4497 56.8007C32.1503 56.8007 32.6956 56.6346 33.0856 56.3024C33.4756 55.9701 33.6887 55.5873 33.7248 55.154ZM32.2406 53.7239H30.4097C30.453 53.4206 30.5541 53.175 30.713 52.9872C30.8719 52.7995 31.0958 52.7056 31.3847 52.7056C31.717 52.7056 31.9481 52.8139 32.0781 53.0306C32.2153 53.2472 32.2695 53.4784 32.2406 53.7239Z" fill="#003B55"/>
<path d="M33.3797 17.8867C34.2016 20.1131 31.0845 19.5655 31.0845 19.5655L29.7984 19.4409L29.2333 19.3861C28.562 19.3391 27.4048 19.3243 26.3878 19.6229C21.5005 21.1249 23.275 27.8207 23.275 27.8207H23.5049L23.5919 27.8111C23.8331 27.7902 24.1144 27.7711 24.4156 27.7589C24.4975 26.97 24.703 26.5791 24.8406 26.398C24.8789 26.357 24.972 26.29 25.147 26.3692C26.6177 27.1755 28.8963 25.7998 28.8963 25.7998C28.8276 26.3475 28.279 26.7933 28.279 26.7933C31.1567 27.2042 33.1777 24.7036 33.1777 24.7036C34.3096 25.5812 34.7179 27.4655 34.7798 27.7763C34.9478 27.7859 35.1054 27.7989 35.2491 27.8111L35.3362 27.8207H35.7846C38.6545 19.6342 33.3797 17.8867 33.3797 17.8867Z" fill="#003B55"/>
<path d="M36.5258 28.4214C36.2289 28.3614 35.811 28.2873 35.3295 28.2316L35.2424 28.222C35.0987 28.2099 34.9411 28.1968 34.7731 28.1872C33.4357 28.1071 31.4461 28.1289 30.3142 28.8167L30.3028 28.8263L30.234 28.869C30.1233 28.9345 30.0045 28.9852 29.8805 29.0196H29.8683C29.8112 29.035 29.753 29.046 29.6942 29.0527C29.5088 29.0791 29.3206 29.0791 29.1352 29.0527C29.0583 29.0429 28.9823 29.0269 28.9079 29.0048L28.8583 28.9883C28.7676 28.956 28.6801 28.9152 28.5971 28.8664L28.5292 28.8237L28.5179 28.8141C27.4826 28.1846 25.7316 28.1123 24.4133 28.1672C24.1103 28.1794 23.8308 28.1985 23.5896 28.2194L23.5025 28.229C23.0219 28.2847 22.604 28.3587 22.307 28.4188L21.8403 28.5285V29.4193C22.4211 29.5743 22.5247 30.2343 22.5439 30.4337C22.5614 30.6183 22.5955 30.8011 22.6458 30.9796C22.69 31.1463 22.7501 31.3084 22.8251 31.4637L25.1273 33.031L25.2205 33.0528C27.2231 33.3915 28.2044 32.1934 28.6328 31.3775C28.6459 31.354 28.658 31.3322 28.6685 31.3087C28.692 31.2608 28.7138 31.2147 28.7338 31.1677C28.8227 30.9408 28.8961 30.708 28.9532 30.4711C28.9532 30.458 28.9593 30.4424 28.9628 30.4302C28.9918 30.318 29.0453 30.2136 29.1195 30.1246C29.1657 30.0714 29.3329 29.9043 29.534 29.9826C29.5958 30.0106 29.6514 30.0506 29.6977 30.1002C29.7147 30.1178 29.7307 30.1364 29.7456 30.1559C29.8044 30.2391 29.8484 30.3319 29.8753 30.4302C29.8794 30.4436 29.8826 30.4573 29.8849 30.4711C29.9429 30.7078 30.0162 30.9405 30.1043 31.1677C30.1252 31.2147 30.147 31.2608 30.1705 31.3087C30.1818 31.3322 30.194 31.354 30.2062 31.3775C30.6354 32.1934 31.6176 33.3915 33.6194 33.0528L33.7221 33.0284L36.0112 31.4716C36.1644 31.1444 36.2602 30.7933 36.2942 30.4337C36.3117 30.2529 36.3594 30.0763 36.4353 29.9112C36.4869 29.7929 36.5643 29.6874 36.6617 29.6027C36.7592 29.5179 36.8743 29.4558 36.9986 29.421V28.5285L36.5258 28.4214ZM28.3307 30.8394C28.1443 31.3026 27.8655 31.723 27.5113 32.075C26.335 33.1607 24.2235 32.2935 24.2235 32.2935C22.8304 31.7563 23.1612 29.8268 23.1612 29.8268C23.2544 29.1668 23.6027 28.9169 23.8996 28.8281C23.9775 28.7986 24.0594 28.781 24.1425 28.7758C24.6423 28.6887 25.877 28.5581 27.4512 29.01C27.4713 29.0161 27.4922 29.0214 27.5122 29.0283C28.1765 29.2321 28.3751 29.7249 28.4317 30.0584C28.4612 30.3231 28.4265 30.5909 28.3307 30.8394ZM34.612 32.2935C34.612 32.2935 32.5005 33.1642 31.3233 32.075C30.9691 31.723 30.6903 31.3026 30.504 30.8394C30.4075 30.5902 30.3728 30.3213 30.403 30.0558C30.4587 29.7188 30.6572 29.2295 31.3224 29.0257L31.3843 29.0074C32.9568 28.5555 34.1914 28.6853 34.693 28.7732C34.7758 28.7782 34.8575 28.7959 34.935 28.8254C35.2328 28.9125 35.5802 29.1642 35.6734 29.8242C35.6734 29.8303 36.0051 31.7598 34.612 32.297V32.2935Z" fill="#01ABF6"/>
<path d="M27.1899 30.6315C27.1901 30.7705 27.149 30.9065 27.0719 31.0222C26.9947 31.1379 26.885 31.2281 26.7566 31.2814C26.6281 31.3347 26.4868 31.3486 26.3504 31.3216C26.214 31.2945 26.0887 31.2275 25.9904 31.1292C25.8921 31.0309 25.8251 30.9056 25.7981 30.7692C25.771 30.6328 25.785 30.4915 25.8382 30.3631C25.8915 30.2346 25.9817 30.1249 26.0974 30.0477C26.2131 29.9706 26.3491 29.9295 26.4881 29.9297C26.5739 29.9295 26.659 29.9455 26.7389 29.9767L26.4881 30.6315L27.1847 30.5592C27.1878 30.5832 27.1895 30.6073 27.1899 30.6315Z" fill="#003B55"/>
<path d="M33.3554 30.6315C33.3556 30.7705 33.3145 30.9065 33.2374 31.0222C33.1602 31.1379 33.0505 31.2281 32.9221 31.2814C32.7936 31.3347 32.6523 31.3486 32.5159 31.3216C32.3795 31.2945 32.2542 31.2275 32.1559 31.1292C32.0576 31.0309 31.9906 30.9056 31.9636 30.7692C31.9365 30.6328 31.9505 30.4915 32.0038 30.3631C32.057 30.2346 32.1472 30.1249 32.2629 30.0477C32.3786 29.9706 32.5146 29.9295 32.6536 29.9297C32.7394 29.9295 32.8245 29.9455 32.9044 29.9767L32.6536 30.6315L33.3502 30.5592C33.3533 30.5832 33.3551 30.6073 33.3554 30.6315Z" fill="#003B55"/>
<path d="M29.6054 33.417C29.3209 33.4123 29.0457 33.3147 28.8217 33.1393C28.7792 33.1046 28.7522 33.0545 28.7467 33C28.7411 32.9454 28.7575 32.8909 28.7921 32.8484C28.8267 32.806 28.8768 32.779 28.9314 32.7734C28.9859 32.7679 29.0404 32.7842 29.0829 32.8188C29.1369 32.8615 29.6175 33.2202 30.0573 32.8188C30.0977 32.7822 30.151 32.7632 30.2054 32.7659C30.2599 32.7686 30.311 32.7928 30.3476 32.8332C30.3842 32.8736 30.4033 32.9269 30.4006 32.9814C30.3979 33.0358 30.3737 33.087 30.3333 33.1236C30.1372 33.3111 29.8766 33.4162 29.6054 33.417Z" fill="#003B55"/>
<path d="M31.627 34.1925C31.6262 34.1765 31.6244 34.1605 31.6218 34.1446C31.6218 34.1237 31.6148 34.1046 31.6113 34.0872C31.6119 34.0843 31.6119 34.0813 31.6113 34.0785C31.6073 34.0628 31.6023 34.0474 31.5965 34.0323C31.5969 34.0286 31.5969 34.0248 31.5965 34.021C31.5504 33.9151 31.4666 33.8301 31.3614 33.7824C31.3358 33.7701 31.3089 33.7605 31.2813 33.7537C31.191 33.7278 31.0958 33.7235 31.0036 33.7412C30.9113 33.7589 30.8245 33.7981 30.7502 33.8556C30.8769 33.8753 30.9988 33.9184 31.1098 33.9827C31.0942 34.0126 31.0771 34.0417 31.0584 34.0698C31.041 34.0976 31.0218 34.1229 31.0035 34.149C30.9539 34.2134 30.9051 34.2692 30.8773 34.3005C30.0762 35.1486 28.6335 34.7446 28.6134 34.7359C28.5963 34.7306 28.5782 34.7288 28.5604 34.7307C28.5425 34.7325 28.5252 34.7379 28.5096 34.7467C28.4939 34.7554 28.4801 34.7671 28.4691 34.7813C28.458 34.7954 28.45 34.8117 28.4454 34.829C28.4393 34.8462 28.4367 34.8643 28.4378 34.8825C28.4389 34.9006 28.4437 34.9184 28.4518 34.9347C28.4599 34.9509 28.4713 34.9654 28.4851 34.9771C28.499 34.9889 28.5151 34.9978 28.5324 35.0032C28.8255 35.0802 29.1272 35.1191 29.4302 35.119C29.9439 35.119 30.5769 34.9979 31.0453 34.5095L31.0636 34.4894C31.0854 34.4659 31.1063 34.4407 31.1281 34.4163L31.1655 34.3702L31.1925 34.3371C31.2372 34.2826 31.2771 34.2243 31.3118 34.1629C31.4027 34.2889 31.4445 34.4437 31.4293 34.5983C31.4293 34.5983 31.6261 34.526 31.6287 34.2448C31.6287 34.2378 31.6287 34.23 31.6287 34.2213V34.1873L31.627 34.1925Z" fill="#003B55"/>
<path d="M29.2446 36.9526L18.2527 32.411L17.5892 32.1367L20.2841 42.6419H29.4179V37.024L29.2446 36.9526Z" fill="#01ABF6"/>
<path d="M29.2447 36.5411L28.461 36.118L19.3777 31.2132L18.0002 30.4688L18.2527 31.9995L29.2447 36.5411Z" fill="#003B55"/>
<path d="M28.4612 35.7079L19.0731 29.3281L19.3779 30.8031L28.4612 35.7079Z" fill="#003B55"/>
<path d="M30.1382 36.9574L41.131 32.4149L41.7945 32.1406L39.0996 42.6458H29.9658V37.028L30.1382 36.9574Z" fill="#01ABF6"/>
<path d="M30.1382 36.545L30.9227 36.1219L40.006 31.2171L41.3835 30.4727L41.131 32.0034L30.1382 36.545Z" fill="#003B55"/>
<path d="M40.3109 28.9219L40.0061 30.396L30.9228 35.3016L31.9764 34.585L32.0991 34.5014L34.2698 33.0273L36.5589 31.4705L40.3109 28.9219Z" fill="#003B55"/>
</svg>
